<svg width="113" height="114" viewBox="0 0 113 114" fill="none" xmlns="http://www.w3.org/2000/svg">
<path d="M56.25 0.75C25.2328 0.75 0 25.9828 0 57C0 88.0172 25.2328 113.25 56.25 113.25C87.2672 113.25 112.5 88.0172 112.5 57C112.5 25.9828 87.2672 0.75 56.25 0.75ZM56.25 10.125C82.1953 10.125 103.125 31.0547 103.125 57C103.125 82.9453 82.1953 103.875 56.25 103.875C30.3047 103.875 9.375 82.9453 9.375 57C9.375 31.0547 30.3047 10.125 56.25 10.125ZM82.1766 24.4828L73.2422 33.2672L79.9828 40.0078L88.7719 31.0734L82.1766 24.4828ZM56.25 33.5625C43.3594 33.5625 32.8125 44.1094 32.8125 57C32.8125 69.8906 43.3594 80.4375 56.25 80.4375C69.1406 80.4375 79.6875 69.8906 79.6875 57C79.6875 44.1094 69.1406 33.5625 56.25 33.5625ZM56.25 42.9375C64.0687 42.9375 70.3125 49.1813 70.3125 57C70.3125 64.8187 64.0687 71.0625 56.25 71.0625C48.4313 71.0625 42.1875 64.8187 42.1875 57C42.1875 49.1813 48.4313 42.9375 56.25 42.9375ZM56.25 52.3125C53.6719 52.3125 51.5625 54.4219 51.5625 57C51.5625 59.5781 53.6719 61.6875 56.25 61.6875C58.8281 61.6875 60.9375 59.5781 60.9375 57C60.9375 54.4219 58.8281 52.3125 56.25 52.3125ZM32.5172 73.9922L23.7328 82.9266L30.3234 89.5219L39.2578 80.7328L32.5172 73.9922Z" fill="#F8F8F8"/>
</svg>
